<svg width="24" height="24" viewBox="0 0 24 24" fill="none" xmlns="http://www.w3.org/2000/svg">
<g clip-path="url(#clip0_437_185)">
<path d="M19.515 15.2173L18.9387 14.641C18.8662 14.5683 18.8254 14.4698 18.8255 14.3671V13.7419C18.8255 13.635 18.7389 13.5484 18.6319 13.5484H18.3387C18.2526 13.5484 18.1766 13.6055 18.1529 13.6877L17.9497 14.3879C17.938 14.4281 17.9135 14.4635 17.88 14.4886C17.8465 14.5137 17.8058 14.5273 17.7639 14.5273H17.58C17.5418 14.5273 17.5044 14.516 17.4727 14.4948C17.4409 14.4736 17.4161 14.4435 17.4015 14.4082L17.1426 13.7865C17.1132 13.7158 17.0636 13.6555 16.9999 13.613C16.9363 13.5706 16.8615 13.5479 16.785 13.5479H16.2C16.1197 13.5479 16.0408 13.5731 15.9755 13.6195L14.8282 14.4368C14.7444 14.4967 14.6535 14.5463 14.5577 14.5844L12.6542 15.346C12.5823 15.3747 12.5207 15.4243 12.4773 15.4884C12.4339 15.5525 12.4108 15.6281 12.4108 15.7055V16.1995C12.4108 16.3021 12.4515 16.4008 12.524 16.4734L13.1003 17.0497C13.2455 17.1948 13.4424 17.2766 13.6476 17.2766H14.1479C14.2113 17.2766 14.2742 17.2689 14.3356 17.2534L15.3648 16.996C15.8061 16.8856 16.2731 17.0148 16.5948 17.3366L17.2244 17.9661C17.3695 18.1113 17.5665 18.1931 17.7716 18.1931H18.5052C18.7103 18.1931 18.9073 18.1113 19.0524 17.9661L19.5155 17.5031C19.6606 17.3579 19.7424 17.161 19.7424 16.9558V15.7645C19.7419 15.5594 19.6602 15.3624 19.515 15.2173ZM12 0C5.3729 0 0 5.37242 0 12C0 18.6276 5.3729 24 12 24C18.6271 24 24 18.6276 24 12C24 5.37242 18.6271 0 12 0ZM12 21.6774C7.19177 21.6774 3.20323 18.1495 2.45855 13.5484H5.48613C5.69129 13.5484 5.88823 13.4666 6.03339 13.3215L6.97548 12.3798C7.16226 12.1931 7.47726 12.2444 7.59532 12.4805L8.68984 14.669C8.82097 14.9313 9.08903 15.0973 9.38226 15.0973H9.67742C10.1052 15.0973 10.4516 14.7508 10.4516 14.3231V13.8697C10.4516 13.6645 10.3698 13.4676 10.2247 13.3224L9.95081 13.0485C9.79984 12.8976 9.79984 12.6523 9.95081 12.5013L10.2247 12.2274C10.3698 12.0823 10.5668 12.0005 10.7719 12.0005H10.7869C11.0589 12.0005 11.311 11.8577 11.4508 11.6245L12.2913 10.2237C12.3784 10.0785 12.5913 10.0868 12.6668 10.2382C12.6989 10.3025 12.7483 10.3565 12.8094 10.3943C12.8705 10.4321 12.9409 10.4521 13.0127 10.4521H13.1613C13.3752 10.4521 13.5484 10.2789 13.5484 10.065V6.28548C13.5484 5.99226 13.3829 5.72419 13.1206 5.59306L12.5966 5.33129C12.331 5.19823 12.3077 4.82806 12.555 4.66306L14.9821 2.79871C18.8627 4.05871 21.6774 7.70468 21.6774 12C21.6774 17.3361 17.3361 21.6774 12 21.6774Z" fill="#231F20"/>
</g>
<defs>
<clipPath id="clip0_437_185">
<rect width="24" height="24" fill="white"/>
</clipPath>
</defs>
</svg>
