<svg width="24" height="24" viewBox="0 0 24 24" fill="none" xmlns="http://www.w3.org/2000/svg">
<path d="M23.7589 11.6416L13.4935 3.2078C13.0738 2.85839 12.545 2.66705 11.9989 2.66705C11.4528 2.66705 10.924 2.85839 10.5043 3.2078L0.238799 11.6416C0.171656 11.6978 0.11624 11.7667 0.0757144 11.8443C0.0351887 11.9219 0.0103474 12.0067 0.00260907 12.0939C-0.0051293 12.1811 0.00438679 12.269 0.030614 12.3526C0.0568411 12.4361 0.0992657 12.5136 0.155465 12.5808L0.582134 13.0933C0.69561 13.2288 0.858233 13.3136 1.03426 13.3293C1.21029 13.3449 1.38532 13.29 1.52089 13.1766L2.66548 12.2366V19.9996C2.66647 20.3529 2.80726 20.6915 3.0571 20.9413C3.30694 21.1911 3.6455 21.3319 3.99882 21.3329H9.33219C9.68551 21.3319 10.0241 21.1911 10.2739 20.9413C10.5237 20.6915 10.6645 20.3529 10.6655 19.9996V15.6662H13.3322V19.9996C13.3332 20.3529 13.474 20.6915 13.7238 20.9413C13.9737 21.1911 14.3122 21.3319 14.6656 21.3329H19.9989C20.3506 21.3322 20.6878 21.1928 20.9374 20.9451C21.187 20.6974 21.3289 20.3612 21.3323 20.0096V12.2358L22.4794 13.1783C22.6149 13.2917 22.79 13.3466 22.966 13.3309C23.142 13.3153 23.3046 13.2304 23.4181 13.0949L23.8444 12.5829C23.9008 12.5155 23.9433 12.4377 23.9695 12.3539C23.9958 12.2701 24.0052 12.1819 23.9973 12.0945C23.9893 12.007 23.9642 11.922 23.9233 11.8443C23.8824 11.7665 23.8265 11.6977 23.7589 11.6416ZM19.326 19.3329H15.3322V14.9995C15.3312 14.6462 15.1904 14.3077 14.9406 14.0578C14.6908 13.808 14.3522 13.6672 13.9989 13.6662H9.99886C9.64554 13.6672 9.30697 13.808 9.05714 14.0578C8.8073 14.3077 8.66651 14.6462 8.66552 14.9995V19.3329H4.66549V10.5941L11.9989 4.56823L19.3323 10.5916L19.326 19.3329Z" fill="white"/>
</svg>
