<svg width="169" height="109" viewBox="0 0 169 109" fill="none" xmlns="http://www.w3.org/2000/svg">
<path d="M14.5899 74.7304H32.5257V81.75H5.88916V28.7215H14.5899V74.7304Z" fill="#2D5BD0"/>
<path d="M36.9018 60.5386C36.9018 56.3167 37.7668 52.578 39.4967 49.3225C41.2776 46.067 43.669 43.5491 46.6711 41.7688C49.724 39.9376 53.0822 39.022 56.7456 39.022C60.0529 39.022 62.9278 39.6833 65.3701 41.0058C67.8633 42.2775 69.8477 43.8798 71.3233 45.8127V39.7087H80.1003V81.75H71.3233V75.4934C69.8477 77.4772 67.8379 79.1304 65.2938 80.4529C62.7497 81.7754 59.8494 82.4367 56.593 82.4367C52.9804 82.4367 49.6731 81.5211 46.6711 79.6899C43.669 77.8078 41.2776 75.2136 39.4967 71.9073C37.7668 68.5501 36.9018 64.7605 36.9018 60.5386ZM71.3233 60.6912C71.3233 57.7918 70.7127 55.2739 69.4915 53.1375C68.3212 51.0011 66.7693 49.3734 64.8358 48.2543C62.9023 47.1352 60.8162 46.5757 58.5774 46.5757C56.3386 46.5757 54.2524 47.1352 52.3189 48.2543C50.3854 49.3225 48.8081 50.9248 47.5869 53.0612C46.4166 55.1467 45.8315 57.6392 45.8315 60.5386C45.8315 63.438 46.4166 65.9813 47.5869 68.1686C48.8081 70.3559 50.3854 72.0345 52.3189 73.2044C54.3033 74.3235 56.3895 74.883 58.5774 74.883C60.8162 74.883 62.9023 74.3235 64.8358 73.2044C66.7693 72.0853 68.3212 70.4576 69.4915 68.3212C70.7127 66.1339 71.3233 63.5906 71.3233 60.6912Z" fill="#2D5BD0"/>
<path d="M106.793 82.4367C103.486 82.4367 100.509 81.8517 97.8632 80.6818C95.2683 79.461 93.2076 77.8333 91.6811 75.7986C90.1547 73.7131 89.3405 71.3986 89.2388 68.8553H98.2449C98.3975 70.6356 99.237 72.1362 100.763 73.357C102.341 74.5269 104.3 75.1119 106.64 75.1119C109.083 75.1119 110.965 74.6541 112.288 73.7385C113.662 72.772 114.349 71.5512 114.349 70.0761C114.349 68.4992 113.586 67.3293 112.059 66.5663C110.584 65.8033 108.218 64.964 104.961 64.0484C101.807 63.1837 99.2371 62.3444 97.2527 61.5305C95.2683 60.7166 93.5383 59.4704 92.0627 57.7918C90.638 56.1132 89.9257 53.9005 89.9257 51.1537C89.9257 48.9156 90.5872 46.8809 91.9101 45.0497C93.233 43.1676 95.1156 41.6925 97.558 40.6243C100.051 39.5561 102.901 39.022 106.106 39.022C110.889 39.022 114.731 40.2428 117.631 42.6844C120.582 45.0751 122.159 48.356 122.363 52.5271H113.662C113.509 50.645 112.746 49.1445 111.372 48.0254C109.999 46.9063 108.141 46.3468 105.801 46.3468C103.511 46.3468 101.756 46.7792 100.535 47.6439C99.3134 48.5086 98.7028 49.6531 98.7028 51.0774C98.7028 52.1965 99.1098 53.1375 99.924 53.9005C100.738 54.6635 101.73 55.2739 102.901 55.7317C104.071 56.1386 105.801 56.6727 108.09 57.334C111.143 58.1479 113.637 58.9872 115.57 59.8519C117.554 60.6658 119.259 61.8866 120.684 63.5143C122.108 65.142 122.846 67.3039 122.897 69.9998C122.897 72.3905 122.236 74.5269 120.913 76.409C119.59 78.2911 117.707 79.7662 115.265 80.8344C112.873 81.9026 110.049 82.4367 106.793 82.4367Z" fill="#2D5BD0"/>
<path d="M148.937 60.7675L168.323 81.75H156.569L140.999 63.6669V81.75H132.298V25.288H140.999V58.097L156.264 39.7087H168.323L148.937 60.7675Z" fill="#2D5BD0"/>
</svg>
